<?xml version="1.0" encoding="UTF-8" standalone="no"?>
<svg
   xmlns:dc="http://purl.org/dc/elements/1.1/"
   xmlns:cc="http://creativecommons.org/ns#"
   xmlns:rdf="http://www.w3.org/1999/02/22-rdf-syntax-ns#"
   xmlns:svg="http://www.w3.org/2000/svg"
   xmlns="http://www.w3.org/2000/svg"
   xmlns:sodipodi="http://sodipodi.sourceforge.net/DTD/sodipodi-0.dtd"
   xmlns:inkscape="http://www.inkscape.org/namespaces/inkscape"
   width="700pt"
   height="700pt"
   version="1.1"
   viewBox="0 0 700 700"
   id="svg4"
   sodipodi:docname="noun-fingerprint-4557341.svg"
   inkscape:version="1.0.2 (1.0.2+r75+1)">
  <metadata
     id="metadata10">
    <rdf:RDF>
      <cc:Work
         rdf:about="">
        <dc:format>image/svg+xml</dc:format>
        <dc:type
           rdf:resource="http://purl.org/dc/dcmitype/StillImage" />
      </cc:Work>
    </rdf:RDF>
  </metadata>
  <defs
     id="defs8" />
  <sodipodi:namedview
     pagecolor="#ffffff"
     bordercolor="#666666"
     borderopacity="1"
     objecttolerance="10"
     gridtolerance="10"
     guidetolerance="10"
     inkscape:pageopacity="0"
     inkscape:pageshadow="2"
     inkscape:window-width="1920"
     inkscape:window-height="1054"
     id="namedview6"
     showgrid="false"
     inkscape:zoom="0.6375"
     inkscape:cx="552.15686"
     inkscape:cy="403.92157"
     inkscape:window-x="0"
     inkscape:window-y="0"
     inkscape:window-maximized="1"
     inkscape:current-layer="svg4" />
  <path
     d="m 353.04301,87.560266 c -52.449,0 -104.95,13.566004 -151.93,40.691004 -5.5391,3.207 -8.9492,9.1289 -8.9414,15.531 0.008,6.4021 3.4336,12.316 8.9805,15.508 5.5508,3.1953 12.383,3.1875 17.922,-0.0234 82.918,-47.871 185.02,-47.871 267.93,0 4.125,2.6211 9.1406,3.4414 13.883,2.2773 4.7422,-1.168 8.8047,-4.2188 11.246,-8.4492 2.4414,-4.2305 3.0508,-9.2773 1.6836,-13.965 -1.3672,-4.6914 -4.5859,-8.6211 -8.918,-10.879 -46.977,-27.125 -99.41,-40.691004 -151.86,-40.691004 z m -3.043,68.668004 c -96.652,0 -186.01,51.613 -234.34,135.32 -2.6719,4.1211 -3.5312,9.1602 -2.3828,13.938 1.1523,4.7734 4.2109,8.8711 8.4648,11.324 4.2539,2.457 9.332,3.0586 14.043,1.6641 4.7109,-1.3906 8.6406,-4.6562 10.875,-9.0312 41.953,-72.668 119.43,-117.36 203.34,-117.36 83.906,0.004 161.38,44.691 203.34,117.36 2.2344,4.375 6.1641,7.6406 10.875,9.0312 4.7109,1.3945 9.7891,0.79297 14.043,-1.6641 4.2539,-2.4531 7.3125,-6.5508 8.4648,-11.324 1.1484,-4.7773 0.28906,-9.8164 -2.3828,-13.938 -48.328,-83.703 -137.68,-135.32 -234.34,-135.32 z m -1.418,67.984 c -70.426,1.6094 -138.4,38.617 -176.47,103.61 -0.34375,0.48438 -0.66406,0.98828 -0.95703,1.5039 -26.266,45.488 -40.113,97.062 -40.109,149.59 0.15234,6.2969 3.6016,12.051 9.082,15.156 5.4805,3.1055 12.188,3.1055 17.668,0 5.48,-3.1055 8.9297,-8.8594 9.0859,-15.156 0,-45.895 12.008,-90.961 34.793,-130.79 0.28516,-0.40234 0.55469,-0.8125 0.80469,-1.2305 48.121,-83.352 154.15,-111.82 237.5,-63.695 83.352,48.121 111.75,154.23 63.629,237.58 -11.414,19.77 -36.102,26.387 -55.867,14.973 -19.77,-11.414 -26.473,-36.168 -15.059,-55.938 0.36328,-0.60938 0.6875,-1.2461 0.97656,-1.8945 20.035,-37.008 7.0742,-83.957 -29.582,-105.12 -18.641,-10.762 -40.023,-12.887 -59.422,-7.6914 -18.82,5.043 -35.746,17.039 -46.57,34.762 -0.375,0.51562 -0.72656,1.0547 -1.043,1.6055 -34.469,59.707 -32.473,133.79 5.1094,191.58 2.4922,4.1953 6.5859,7.1914 11.336,8.3008 4.75,1.1055 9.7461,0.23047 13.836,-2.4258 4.0898,-2.6602 6.9219,-6.8711 7.8359,-11.664 0.91797,-4.7891 -0.16016,-9.7461 -2.9805,-13.727 -30.273,-46.555 -31.832,-106.03 -4.0664,-154.12 11.836,-20.504 37.496,-27.391 58,-15.551 20.508,11.84 27.41,37.496 15.57,58.004 -0.45313,0.73828 -0.85547,1.5078 -1.1953,2.3047 -19.293,36.203 -6.4922,81.934 29.293,102.59 36.129,20.863 82.691,8.668 104.12,-26.934 0.27344,-0.38281 0.53125,-0.77344 0.76953,-1.1797 57.809,-100.12 23.391,-228.65 -76.73,-286.46 -25.031,-14.453 -51.906,-23.137 -78.941,-26.473 -10.137,-1.25 -20.297,-1.7539 -30.418,-1.5195 z m 12.152,72.887 c -49.57,0 -95.418,26.262 -120.61,68.871 -0.27344,0.39453 -0.52734,0.80078 -0.76953,1.2148 -0.30859,0.50781 -0.59375,1.0352 -0.85156,1.5703 -33.836,59.543 -42.914,130.08 -25.176,196.28 1.6641,6.1836 6.5,11.012 12.691,12.664 6.1875,1.6523 12.785,-0.12109 17.309,-4.6562 4.5273,-4.5352 6.2891,-11.137 4.625,-17.32 -15.438,-57.605 -7.4141,-118.93 22.406,-170.57 18.652,-32.309 53.066,-52.191 90.371,-52.191 37.301,0 71.699,19.883 90.352,52.191 18.652,32.305 18.652,71.992 0,104.3 -3.1953,5.5508 -3.1875,12.387 0.0195,17.93 3.20703,5.543 9.1289,8.9531 15.535,8.9453 6.4062,-0.008 12.32,-3.4297 15.516,-8.9805 25.023,-43.344 25.023,-96.809 0,-140.15 -25.027,-43.348 -71.375,-70.086 -121.42,-70.086 z m 5.6055,122.21 c -3.2227,-0.0312 -6.3906,0.80469 -9.1719,2.418 -2.7852,1.6172 -5.0859,3.9531 -6.6562,6.7617 -36.594,63.383 -14.676,144.97 48.707,181.56 5.5508,3.1953 12.383,3.1875 17.926,-0.0195 5.543,-3.20703 8.9531,-9.1289 8.9492,-15.535 -0.008,-6.4062 -3.4336,-12.32 -8.9805,-15.516 -46.613,-26.91 -62.441,-85.988 -35.531,-132.6 2.1562,-3.625 2.9609,-7.8984 2.2734,-12.062 -0.68359,-4.1641 -2.8203,-7.9492 -6.0234,-10.695 -3.2031,-2.7458 -7.2734,-4.2734 -11.492,-4.3125 z"
     id="path2"
     style="fill:#0000ff" />
</svg>
